<?xml version="1.0" encoding="UTF-8" standalone="no"?> <svg height="512pt" viewBox="0 0 512 512" width="512pt" xmlns="http://www.w3.org/2000/svg"><path d="m451 149.949219h61v30h-61zm0 0"/><path d="m0 149.949219h61v30h-61zm0 0"/><path d="m469.347656 305.445312-51.957031-30 15-25.980468 51.957031 30zm0 0"/><path d="m42.660156 24.457031 51.960938 30-15 25.980469-51.960938-30zm0 0"/><path d="m469.335938 24.449219 15 25.980469-51.960938 30-15-25.980469zm0 0"/><path d="m42.660156 305.441406-15-25.980468 51.957032-30 15 25.980468zm0 0"/><path d="m421 164.949219c0-49.902344-22.234375-96.597657-61-128.105469-38.765625-31.503906-89.574219-43.601562-139.40625-33.195312-64.753906 13.519531-115.824219 66.640624-127.089844 132.1875-12.996094 75.652343 25.777344 144.296874 87.496094 175.925781v48.1875h-30v30h30v30h-30v30h60v62h90v-62h60v-30h-30v-30h30v-30h-30v-48.179688c54.988281-28.09375 90-84.683593 90-146.820312zm-150 317h-30v-32h30zm30-62h-90v-30h90zm-90-60v-67.472657l-8.984375-3.933593c-57.121094-24.996094-89.582031-85.707031-78.945313-147.628907 9.195313-53.511718 50.851563-96.871093 103.65625-107.898437 40.949219-8.550781 82.628907 1.328125 114.351563 27.109375 31.726563 25.785156 49.921875 63.992188 49.921875 104.824219 0 53.542969-31.800781 102.054687-81.015625 123.59375l-8.984375 3.933593v67.472657zm0 0"/><path d="m331 194.949219c0-36.101563-54.84375-108.667969-75-135.492188-12.433594 16.546875-75 97.136719-75 135.492188 0 41.355469 33.644531 75 75 75s75-33.644531 75-75zm-75 45c-24.8125 0-45-20.1875-45-45 0-11.023438 15.679688-43.527344 45-85.058594 29.320312 41.53125 45 74.035156 45 85.058594 0 24.8125-20.1875 45-45 45zm0 0"/></svg>